<svg xmlns="http://www.w3.org/2000/svg" xmlns:xlink="http://www.w3.org/1999/xlink" width="500" zoomAndPan="magnify" viewBox="0 0 375 374.999991" height="500" preserveAspectRatio="xMidYMid meet" version="1.0"><defs><clipPath id="4a349633f6"><path d="M 22.03125 1 L 308 1 L 308 286 L 22.03125 286 Z M 22.03125 1 " clip-rule="nonzero"/></clipPath><clipPath id="cbe51fdaa6"><path d="M 32 12 L 352.78125 12 L 352.78125 284 L 32 284 Z M 32 12 " clip-rule="nonzero"/></clipPath></defs><path fill="#95c63e" d="M 109.785156 159.363281 C 115.5 161.066406 119.566406 162.59375 119.566406 162.59375 C 119.566406 162.59375 119.023438 163.207031 117.929688 164.230469 C 116.875 165.253906 115.132812 166.707031 113.273438 168.390625 C 111.34375 170.070312 108.882812 172.019531 106.050781 173.96875 C 103.34375 175.890625 100.15625 177.824219 96.5 179.304688 C 89.195312 182.320312 81.304688 182.578125 75.125 181.417969 C 72.035156 180.863281 69.390625 180.023438 67.515625 179.304688 C 65.660156 178.585938 64.628906 177.988281 64.628906 177.988281 C 64.628906 177.988281 65.089844 176.773438 66.015625 174.921875 C 66.984375 173.066406 68.242188 170.589844 70.320312 168.078125 C 72.378906 165.566406 74.933594 163.042969 77.914062 161.050781 C 80.960938 159.050781 84.605469 157.566406 88.476562 156.9375 C 96.269531 155.722656 103.992188 157.734375 109.785156 159.363281 Z M 239.882812 10.34375 C 237.625 4.496094 234.359375 0.15625 234.359375 0.15625 C 234.359375 0.15625 233.132812 0.355469 231.253906 0.910156 C 229.347656 1.558594 226.792969 2.582031 224.214844 4.039062 C 219.007812 6.949219 213.882812 11.652344 212.59375 18.238281 C 211.554688 23.460938 212.808594 29.039062 214.351562 33.820312 C 215.925781 38.605469 217.832031 42.589844 218.921875 44.738281 C 218.921875 43.238281 220.003906 41.886719 221.660156 40.910156 C 223.3125 39.902344 225.597656 39.0625 228.039062 38.144531 C 232.914062 36.28125 238.578125 34.238281 240.550781 29.777344 C 241.875 26.699219 242.335938 23.261719 242.117188 19.875 C 241.902344 16.554688 241.019531 13.265625 239.882812 10.34375 Z M 77.738281 73.671875 C 75.246094 73.585938 70.648438 73.300781 65.496094 71.984375 C 60.351562 70.648438 54.640625 68.25 50.050781 63.460938 C 50.050781 63.460938 52.570312 65.410156 57.382812 67.21875 C 62.1875 69.0625 69.296875 70.640625 78.277344 70.804688 C 77.824219 69.851562 77.210938 68.632812 76.421875 67.269531 C 75.746094 65.929688 74.941406 64.445312 73.945312 62.9375 C 71.957031 59.949219 69.261719 56.839844 65.601562 54.988281 C 60.699219 52.484375 54.890625 52.933594 50.207031 54.371094 C 45.539062 55.773438 42.066406 58.054688 42.066406 58.054688 C 42.066406 58.054688 42.207031 59.101562 42.585938 60.722656 C 43.046875 62.351562 43.886719 64.578125 45.027344 66.855469 C 46.179688 69.140625 47.6875 71.488281 49.566406 73.4375 C 51.390625 75.386719 53.921875 76.964844 56.5625 77.769531 C 60.820312 79.042969 65.191406 78.300781 68.90625 77.183594 C 72.621094 76.054688 76 74.558594 77.738281 73.671875 Z M 338.589844 116.332031 C 336.675781 114.816406 334.476562 113.34375 332.070312 112.335938 C 329.566406 111.367188 326.925781 110.839844 324.328125 111.046875 C 319.132812 111.488281 315.003906 114.660156 312.070312 117.449219 C 309.203125 120.246094 307.324219 122.847656 307.324219 122.847656 C 307.324219 122.847656 309.59375 125.097656 313.203125 127.53125 C 314.996094 128.753906 317.179688 130.011719 319.480469 131.042969 C 321.707031 132.089844 324.15625 132.902344 326.738281 133.078125 C 331.898438 133.449219 336.539062 131.066406 339.820312 128.3125 C 341.457031 126.953125 342.796875 125.515625 343.648438 124.429688 C 344.488281 123.355469 344.929688 122.613281 344.929688 122.613281 C 344.929688 122.613281 342.398438 119.371094 338.589844 116.332031 Z M 304.839844 186.339844 C 307.359375 184.398438 309.574219 182.378906 310.839844 180.792969 C 312.113281 179.21875 312.804688 178.144531 312.804688 178.144531 C 312.804688 178.144531 309.175781 174.808594 303.523438 172.234375 C 297.878906 169.585938 290.222656 167.902344 282.335938 169.011719 C 278.398438 169.550781 274.777344 170.632812 271.617188 171.820312 C 270.03125 172.417969 268.5625 173.039062 267.210938 173.664062 C 266.550781 173.976562 265.902344 174.289062 265.269531 174.589844 C 264.613281 174.894531 263.972656 175.191406 263.347656 175.476562 C 258.492188 177.769531 255.84375 179.632812 255.84375 179.632812 C 255.84375 179.632812 256.761719 180.25 258.265625 181.261719 C 259.765625 182.257812 261.929688 183.652344 264.550781 185.195312 C 269.84375 188.226562 276.785156 192.046875 284.675781 192.765625 C 288.589844 193.097656 292.363281 192.515625 295.859375 191.320312 C 299.28125 190.117188 302.257812 188.269531 304.839844 186.339844 Z M 315.515625 243.925781 C 311.921875 239.097656 305.316406 237.234375 299.265625 237.824219 C 295.722656 238.144531 292.007812 239.160156 289.097656 237.589844 C 290.804688 238.449219 291.074219 244.445312 291.703125 246.367188 C 292.875 249.726562 294.5625 252.898438 297.160156 255.167969 C 300.875 258.425781 306.148438 259.285156 310.484375 258.972656 C 312.660156 258.84375 314.625 258.46875 316.042969 258.132812 C 317.464844 257.785156 318.3125 257.449219 318.3125 257.449219 C 318.726562 257.292969 318.328125 254.078125 317.636719 250.878906 C 316.953125 247.667969 315.871094 244.410156 315.515625 243.925781 Z M 315.515625 243.925781 " fill-opacity="1" fill-rule="nonzero"/><g clip-path="url(#4a349633f6)"><path fill="#13577a" d="M 76.675781 227.152344 C 80.804688 228.597656 83.59375 230.210938 83.59375 230.210938 C 83.59375 230.210938 82.398438 233.191406 80.285156 236.613281 C 78.113281 240.042969 74.875 244.132812 69.945312 245.820312 C 67.488281 246.652344 64.777344 246.792969 62.152344 246.4375 C 59.582031 246.046875 57.054688 245.179688 54.820312 244.183594 C 52.585938 243.1875 50.648438 242.0625 49.277344 241.1875 C 47.953125 240.277344 47.199219 239.628906 47.199219 239.628906 C 47.199219 239.628906 48.292969 236.273438 50.769531 232.851562 C 53.234375 229.40625 57.113281 225.980469 62.242188 225.054688 C 67.410156 224.128906 72.585938 225.707031 76.675781 227.152344 Z M 63.84375 149.859375 C 65.652344 148.835938 67.140625 147.910156 68.179688 147.242188 C 65.117188 147.605469 62.847656 143.621094 60.351562 138.949219 C 58.050781 134.367188 55.433594 129.015625 50.628906 127.566406 C 44.1875 125.644531 37.019531 127.609375 31.390625 130.597656 C 28.585938 132.0625 26.144531 133.726562 24.578125 135.070312 C 22.976562 136.402344 22.03125 137.347656 22.03125 137.347656 C 22.03125 137.347656 23.589844 142.199219 26.984375 146.964844 C 30.585938 151.796875 35.953125 156.328125 42.648438 156.796875 C 47.964844 157.1875 53.296875 155.238281 57.800781 153.105469 C 60.066406 152.03125 62.058594 150.890625 63.84375 149.859375 Z M 166.105469 52.59375 C 164.175781 50.644531 162.226562 49.121094 160.773438 48.125 C 159.335938 47.214844 158.382812 46.765625 158.382812 46.765625 C 158.382812 46.765625 155.992188 50.429688 154.53125 55.628906 C 152.972656 60.730469 152.730469 67.851562 155.25 74.3125 C 157.792969 80.855469 162.097656 85.722656 165.457031 89.65625 C 168.824219 93.460938 171.25 95.644531 171.25 95.644531 C 171.25 95.644531 171.5 94.820312 171.875 93.355469 C 172.261719 91.980469 172.800781 90.03125 173.335938 87.605469 C 174.367188 82.761719 175.648438 76.039062 174.652344 69.125 C 173.664062 62.210938 170.019531 56.492188 166.105469 52.59375 Z M 267.140625 43.621094 C 268.519531 41.566406 269.269531 39.21875 269.574219 36.8125 C 269.894531 34.386719 269.722656 31.976562 269.28125 29.890625 C 268.449219 25.660156 266.75 22.378906 266.75 22.378906 C 266.542969 21.980469 263.417969 22.75 260.351562 23.808594 C 257.296875 24.792969 254.1875 26.328125 253.738281 26.761719 C 251.546875 28.867188 250.214844 31.613281 249.589844 34.558594 C 248.957031 37.519531 249.089844 40.5625 249.695312 43.671875 C 250.4375 47.171875 251.875 50.785156 250.691406 53.867188 C 251.324219 52.074219 257.296875 50.949219 259.140625 50.066406 C 262.292969 48.550781 265.226562 46.480469 267.140625 43.621094 Z M 204.773438 6.082031 C 203.726562 3.507812 202.273438 1.722656 202.273438 1.722656 C 202.273438 1.722656 199.761719 2.453125 197.042969 4.097656 C 194.308594 5.875 191.40625 8.492188 190.429688 11.738281 C 189.441406 14.988281 190.445312 18.261719 191.5625 20.714844 C 192.695312 23.167969 193.988281 24.8125 193.988281 24.8125 C 193.988281 24.8125 194.515625 24.5625 195.347656 24.09375 C 196.175781 23.582031 197.3125 23 198.53125 22.214844 C 200.972656 20.628906 203.832031 18.269531 205.136719 15.136719 C 206.445312 12 205.839844 8.65625 204.773438 6.082031 Z M 306.917969 146.261719 C 306.570312 145.960938 306 145.542969 305.238281 145.058594 C 303.75 144.089844 301.628906 142.867188 299.097656 141.828125 C 294.027344 139.6875 287.382812 138.484375 280.613281 140.199219 C 273.859375 141.90625 268.101562 145.664062 263.988281 148.464844 C 261.9375 149.894531 260.308594 151.132812 259.203125 152.015625 C 258.074219 152.90625 257.390625 153.453125 257.390625 153.453125 C 257.390625 153.453125 260.308594 154.855469 265.070312 156.527344 C 267.445312 157.359375 270.300781 158.253906 273.390625 158.972656 C 276.386719 159.683594 279.703125 160.210938 283.195312 160.125 C 286.683594 160.039062 290.007812 159.308594 293.046875 158.132812 C 295.992188 156.96875 298.546875 155.367188 300.691406 153.6875 C 304.96875 150.351562 307.472656 146.738281 307.472656 146.738281 C 307.472656 146.738281 307.28125 146.574219 306.917969 146.261719 Z M 281.324219 207.148438 C 279.894531 204.636719 278 202.296875 275.53125 200.375 C 270.550781 196.527344 264.386719 194.871094 259.582031 193.773438 C 254.769531 192.714844 251.332031 192.335938 251.332031 192.335938 C 251.332031 192.335938 251.523438 192.992188 251.84375 194.074219 C 252.164062 195.160156 252.769531 196.753906 253.53125 198.625 C 255.105469 202.347656 257.425781 207.40625 261.644531 212.09375 C 265.808594 216.738281 271.382812 219.867188 276.136719 221.460938 C 280.820312 223.0625 284.621094 223.234375 284.621094 223.234375 C 284.621094 223.234375 284.742188 222.300781 284.753906 220.75 C 284.71875 219.179688 284.570312 217.015625 284.101562 214.652344 C 283.550781 212.234375 282.707031 209.625 281.324219 207.148438 Z M 220.203125 107.726562 C 219.796875 106.886719 212.59375 109.367188 212.160156 109.652344 C 209.183594 111.167969 206.695312 113.488281 205.726562 116.921875 C 204.617188 120.84375 205.570312 125.410156 205.648438 129.914062 C 205.703125 130.929688 205.789062 134.523438 204.652344 134.730469 C 206.167969 134.429688 208.90625 133.8125 211.832031 132.652344 C 214.757812 131.464844 217.832031 129.792969 219.867188 126.96875 C 222.421875 123.445312 222.621094 118.714844 222.039062 114.753906 C 221.476562 110.8125 220.203125 107.726562 220.203125 107.726562 Z M 115.585938 265.980469 C 112.726562 271.8125 112.625 278.628906 113.542969 285.046875 C 116.632812 283.203125 119.777344 281.316406 122.242188 278.679688 C 125.535156 275.171875 127.402344 270.570312 128.78125 265.964844 C 129.742188 262.742188 130.496094 259.449219 131.039062 256.128906 C 124.574219 255.59375 118.441406 260.148438 115.585938 265.980469 Z M 115.585938 265.980469 " fill-opacity="1" fill-rule="nonzero"/></g><g clip-path="url(#cbe51fdaa6)"><path fill="#84b21f" d="M 47.210938 200.660156 C 51.988281 197.972656 59.226562 195.425781 68.65625 194.484375 C 68.34375 195.695312 67.808594 197.28125 67.28125 199.011719 C 66.761719 200.746094 66.085938 202.667969 65.226562 204.617188 C 64.371094 206.578125 63.332031 208.570312 62.058594 210.40625 C 60.855469 212.214844 59.417969 213.871094 57.644531 215.160156 C 52.941406 218.644531 46.578125 218.628906 41.441406 217.230469 C 36.378906 215.863281 32.449219 213.300781 32.449219 213.300781 C 32.449219 213.300781 32.414062 208.023438 34.273438 202.125 C 35.183594 199.1875 36.316406 196.164062 38.144531 193.554688 C 39.953125 190.9375 42.195312 188.800781 44.878906 187.585938 C 49.148438 185.65625 53.875 186.21875 57.988281 187.292969 C 60.042969 187.835938 61.945312 188.53125 63.574219 189.199219 C 65.253906 189.855469 66.675781 190.488281 67.679688 190.964844 C 65.0625 191.285156 60.273438 192.011719 55.054688 194.074219 C 49.84375 196.15625 44.1875 199.601562 40.066406 205.933594 C 40.058594 205.933594 42.421875 203.308594 47.210938 200.660156 Z M 100.71875 260.425781 C 99.324219 260.792969 96.953125 261.371094 94.371094 262.480469 C 91.808594 263.582031 89.074219 265.148438 87.324219 267.601562 C 85.140625 270.660156 84.933594 274.78125 85.644531 277.96875 C 86.3125 281.183594 87.582031 283.652344 87.582031 283.652344 C 87.757812 283.984375 89.445312 283.609375 91.125 283.074219 C 92.832031 282.511719 94.511719 281.808594 94.726562 281.6875 C 97.375 280.257812 99.542969 278.1875 100.3125 275.285156 C 100.761719 273.613281 100.691406 271.878906 100.570312 270.007812 C 100.441406 268.148438 100.164062 266.257812 100 264.4375 C 99.921875 263.617188 99.695312 260.671875 100.71875 260.425781 Z M 110.613281 92.757812 C 106.917969 89.613281 102.839844 87.527344 98.65625 86.347656 C 94.519531 85.1875 90.09375 84.796875 86.371094 85.160156 C 78.925781 85.863281 73.089844 88.582031 73.089844 88.582031 C 73.089844 88.582031 73.289062 90.230469 74.164062 92.914062 C 74.996094 95.574219 76.335938 99.144531 78.320312 102.808594 C 82.101562 110.144531 89.382812 117.761719 98.320312 121.433594 C 101.652344 122.835938 105.011719 123.035156 108.183594 122.792969 C 111.5 122.621094 114.753906 122.066406 117.671875 121.582031 C 119.136719 121.339844 120.527344 121.121094 121.835938 120.984375 C 123.179688 120.863281 124.546875 120.886719 125.75 120.984375 C 128.191406 121.199219 130.226562 121.902344 131.84375 123.382812 C 130.234375 120.609375 127.359375 115.671875 124.140625 110.136719 C 120.695312 104.472656 116.460938 97.773438 110.613281 92.757812 Z M 136.105469 16.875 C 133.03125 14.042969 129.863281 12.605469 129.863281 12.605469 C 129.863281 12.605469 126.925781 15.429688 124.355469 19.511719 C 121.800781 23.675781 119.871094 29.386719 120.917969 34.417969 C 121.984375 39.496094 125.644531 43.238281 128.796875 45.847656 C 131.976562 48.4375 134.710938 49.847656 134.710938 49.847656 C 134.710938 49.847656 135.1875 49.171875 135.890625 47.988281 C 136.625 46.878906 137.621094 45.328125 138.625 43.414062 C 140.597656 39.617188 142.703125 34.410156 142.417969 29.195312 C 142.15625 24.074219 139.1875 19.65625 136.105469 16.875 Z M 248.777344 104.921875 C 254.871094 102.167969 262.121094 98.71875 267.773438 93.574219 C 275.011719 87.050781 277.824219 78.308594 278.222656 70.519531 C 278.527344 66.585938 277.914062 63.363281 277.453125 60.894531 C 276.960938 58.460938 276.449219 56.960938 276.449219 56.960938 C 276.449219 56.960938 274.734375 57.023438 272.066406 57.421875 C 269.453125 57.75 265.625 58.796875 261.746094 60.324219 C 257.832031 61.882812 253.765625 64.074219 250.144531 66.984375 C 246.535156 69.84375 243.253906 73.605469 240.835938 77.789062 C 237.382812 83.9375 238.003906 91.242188 238.28125 96.984375 C 238.429688 103.066406 238.058594 108.09375 234.707031 110.882812 C 236.082031 110.320312 238.203125 109.339844 240.535156 108.414062 C 242.898438 107.453125 245.710938 106.28125 248.777344 104.921875 Z M 344.929688 145.804688 C 340.3125 143.179688 334.347656 141.566406 328.839844 143.800781 C 324.726562 145.457031 321.410156 148.820312 318.832031 152.179688 C 317.542969 153.867188 316.460938 155.558594 315.53125 157.109375 C 314.484375 158.660156 313.636719 160.0625 313.011719 161.164062 C 322.371094 162.574219 330.019531 161.890625 335.316406 160.46875 C 340.617188 159.09375 343.570312 157.125 343.570312 157.125 C 337.992188 162.246094 331.65625 164.195312 326.085938 164.933594 C 320.519531 165.640625 315.699219 165.167969 313.089844 164.828125 C 314.753906 166.230469 318 168.699219 321.679688 170.78125 C 325.351562 172.832031 329.765625 174.539062 334.398438 173.726562 C 337.273438 173.207031 340.164062 171.699219 342.390625 169.601562 C 344.667969 167.515625 346.632812 164.871094 348.210938 162.238281 C 349.785156 159.613281 351.023438 157.003906 351.777344 155.054688 C 352.445312 153.117188 352.765625 151.84375 352.765625 151.84375 C 352.765625 151.84375 349.535156 148.386719 344.929688 145.804688 Z M 266.507812 224.769531 C 263.625 222.585938 260.429688 221.574219 257.191406 220.941406 C 254.007812 220.359375 250.769531 220.144531 247.789062 219.875 C 241.796875 219.347656 236.855469 218.359375 234.464844 214.652344 C 235.304688 217.585938 236.707031 222.949219 238.636719 229.386719 C 239.597656 232.574219 240.734375 236.050781 242.152344 239.523438 C 243.546875 242.953125 245.246094 246.410156 247.488281 249.546875 C 250.300781 253.496094 253.789062 256.582031 257.53125 258.722656 C 261.289062 260.886719 265.367188 262.210938 269.097656 262.808594 C 272.871094 263.484375 276.285156 263.449219 278.777344 263.277344 C 281.296875 263.128906 282.804688 262.773438 282.804688 262.773438 C 282.804688 262.773438 283.417969 255.886719 281.296875 247.761719 C 279.261719 239.566406 274.328125 230.582031 266.507812 224.769531 Z M 153.804688 110.683594 C 150.125 115.570312 149.09375 123 151.238281 128.660156 C 153.378906 134.316406 158.496094 138.363281 162.453125 143.445312 C 165.007812 137.859375 166.808594 131.863281 165.828125 125.816406 C 164.851562 119.789062 160.679688 113.671875 153.804688 110.683594 Z M 153.804688 110.683594 " fill-opacity="1" fill-rule="nonzero"/></g><path fill="#59b8a9" d="M 127.445312 227.949219 C 133.066406 221.832031 137.195312 216.089844 139.4375 213.023438 C 138.851562 215.507812 137.679688 220.230469 135.855469 225.859375 C 134.113281 231.292969 131.734375 237.722656 127.265625 242.902344 C 124.441406 246.152344 120.953125 248.542969 117.136719 250.144531 C 113.332031 251.753906 109.386719 252.351562 105.609375 252.570312 C 101.800781 252.820312 98.511719 252.320312 96.058594 251.867188 C 93.609375 251.410156 92.085938 250.949219 92.085938 250.949219 C 92.085938 250.949219 92.070312 250.578125 92.035156 249.894531 C 92 249.226562 92.015625 248.222656 92.113281 246.992188 C 92.292969 244.53125 92.726562 241.203125 93.730469 237.710938 C 94.675781 234.253906 96.441406 230.445312 98.796875 227.125 C 101.160156 223.78125 104.214844 220.855469 107.914062 218.636719 C 110.675781 216.980469 113.585938 215.820312 116.425781 214.9375 C 119.265625 214.0625 122 213.488281 124.675781 212.945312 C 127.316406 212.433594 129.722656 212.078125 131.785156 211.828125 C 133.828125 211.566406 135.636719 211.332031 137.058594 211.140625 C 128.882812 222.195312 121.445312 230.851562 115.445312 236.101562 C 109.515625 241.421875 105.195312 243.550781 105.195312 243.550781 C 114.519531 240.554688 121.800781 234.003906 127.445312 227.949219 Z M 119.222656 194.820312 C 122.605469 190.984375 124.511719 188.289062 124.511719 188.289062 C 124.511719 188.289062 123.671875 188.132812 122.183594 187.941406 C 120.738281 187.734375 118.738281 187.429688 116.242188 187.207031 C 113.757812 186.972656 110.8125 186.789062 107.636719 186.859375 C 104.46875 186.929688 101.175781 187.222656 97.800781 188.167969 C 94.457031 189.101562 91.359375 190.652344 88.796875 192.507812 C 86.234375 194.359375 84.101562 196.5625 82.421875 198.71875 C 80.742188 200.867188 79.472656 202.988281 78.691406 204.550781 C 77.957031 206.089844 77.609375 207.097656 77.609375 207.097656 C 77.609375 207.097656 81.496094 209.027344 86.804688 209.867188 C 92.300781 210.664062 99.175781 210.144531 105.308594 206.84375 C 111.464844 203.507812 115.992188 198.519531 119.222656 194.820312 Z M 81.152344 127.375 C 81.152344 127.375 81.28125 128.320312 81.652344 129.820312 C 82.050781 131.328125 82.578125 133.347656 83.660156 135.546875 C 86 140.015625 89.539062 144.789062 95.464844 147.335938 C 101.273438 149.867188 107.652344 149.96875 112.511719 149.859375 C 114.9375 149.78125 116.996094 149.617188 118.511719 149.484375 C 119.984375 149.328125 120.882812 149.234375 120.882812 149.234375 C 120.882812 149.234375 119.730469 146.921875 117.179688 143.601562 C 114.953125 140.40625 111.378906 136.023438 106.085938 132.488281 C 100.796875 128.960938 94.683594 127.332031 89.757812 126.976562 C 84.847656 126.597656 81.152344 127.375 81.152344 127.375 Z M 40.421875 164.585938 C 37.148438 163.675781 33.902344 164.699219 31.484375 166.074219 C 29.070312 167.4375 27.476562 169.109375 27.476562 169.109375 C 27.476562 169.109375 27.746094 169.707031 28.246094 170.625 C 28.722656 171.542969 29.554688 172.765625 30.585938 174.011719 C 32.636719 176.515625 35.546875 179.070312 38.878906 179.640625 C 42.214844 180.214844 45.347656 178.820312 47.660156 177.398438 C 49.980469 175.96875 51.46875 174.46875 51.46875 174.46875 C 51.46875 174.46875 50.242188 172.511719 48.265625 170.277344 C 46.378906 168.050781 43.695312 165.496094 40.421875 164.585938 Z M 116.476562 93.417969 C 121.039062 98.476562 127.1875 101.691406 132.441406 104.167969 C 135.082031 105.390625 137.523438 106.394531 139.578125 107.207031 C 141.65625 108.050781 143.4375 108.769531 144.71875 109.289062 C 141.921875 106.652344 136.683594 101.785156 131.316406 95.453125 C 125.992188 89.085938 120.546875 81.21875 118.625 71.472656 C 118.625 71.472656 120.21875 76.046875 124.773438 82.605469 C 129.246094 89.222656 136.902344 97.671875 146.824219 107.078125 C 146.710938 104.152344 146.996094 100.027344 146.589844 94.585938 C 146.125 89.109375 145.605469 83.175781 142.996094 77.234375 C 141.257812 73.292969 138.710938 69.886719 135.671875 67.105469 C 134.15625 65.71875 132.511719 64.464844 130.832031 63.390625 C 129.1875 62.375 127.492188 61.527344 125.820312 60.816406 C 122.476562 59.394531 119.230469 58.546875 116.816406 58.070312 C 115.601562 57.828125 114.605469 57.679688 113.914062 57.585938 C 113.210938 57.480469 112.839844 57.480469 112.839844 57.480469 C 112.839844 57.480469 110.292969 63.433594 109.566406 70.71875 C 109.238281 74.410156 109.585938 78.65625 110.640625 82.554688 C 111.714844 86.503906 113.609375 90.21875 116.476562 93.417969 Z M 164.191406 9.652344 C 167.050781 11.902344 169.179688 14.710938 170.765625 17.550781 C 172.347656 20.386719 173.386719 23.269531 174.097656 26 C 175.5 31.457031 175.621094 36.289062 175.613281 38.914062 C 176.800781 37.089844 178.859375 33.726562 180.460938 29.707031 C 182.039062 25.6875 183.171875 21.007812 181.796875 16.582031 C 180.082031 10.996094 174.332031 6.886719 168.679688 4.304688 C 165.855469 2.929688 163.164062 2.304688 161.144531 1.820312 C 159.128906 1.359375 157.820312 1.179688 157.820312 1.179688 C 157.820312 1.179688 154.78125 4.738281 152.789062 9.582031 C 150.753906 14.46875 149.976562 20.851562 152.84375 25.929688 C 153.90625 27.851562 155.363281 29.4375 157.015625 30.894531 C 158.6875 32.390625 160.53125 33.683594 162.375 34.792969 C 166.0625 37.035156 169.664062 38.394531 171.996094 39.367188 C 172.226562 29.933594 170.601562 22.414062 168.53125 17.300781 C 166.488281 12.191406 164.191406 9.652344 164.191406 9.652344 Z M 197.976562 44.382812 C 195.753906 41.929688 193.457031 40.34375 191.734375 39.238281 C 190.011719 38.128906 188.859375 37.546875 188.859375 37.546875 C 188.859375 37.546875 186.003906 41.496094 184.152344 47.378906 C 182.226562 53.382812 181.519531 61.386719 183.597656 68.898438 C 184.609375 72.597656 186.132812 76.140625 187.699219 79.191406 C 189.277344 82.242188 190.902344 84.839844 192.332031 86.917969 C 193.761719 89.066406 195 90.980469 195.882812 92.144531 C 196.765625 93.347656 197.3125 93.972656 197.3125 93.972656 C 197.3125 93.972656 197.804688 92.984375 198.617188 91.355469 C 199.425781 89.691406 200.550781 87.273438 201.746094 84.582031 C 204.082031 79.078125 207.027344 71.699219 206.785156 63.761719 C 206.585938 55.628906 202.488281 49.121094 197.976562 44.382812 Z M 83.644531 57.777344 C 88.078125 59.578125 93.507812 58.988281 98.457031 59.128906 C 99.636719 59.1875 103.800781 59.5 103.929688 60.910156 C 103.722656 59.015625 103.265625 55.574219 102.191406 51.851562 C 101.097656 48.125 99.410156 44.105469 96.355469 41.296875 C 92.511719 37.753906 87.054688 36.957031 82.441406 37.21875 C 81.289062 37.277344 80.199219 37.398438 79.203125 37.546875 C 78.25 37.738281 77.394531 37.953125 76.675781 38.164062 C 75.238281 38.570312 74.363281 38.914062 74.363281 38.914062 C 73.367188 39.332031 75.546875 48.488281 75.84375 49.050781 C 77.324219 52.882812 79.765625 56.191406 83.644531 57.777344 Z M 298.820312 98.320312 C 296.484375 97.324219 293.238281 96.144531 289.617188 95.375 C 287.808594 94.984375 285.894531 94.699219 283.957031 94.578125 C 281.980469 94.480469 279.867188 94.613281 277.84375 94.914062 C 273.757812 95.53125 269.800781 96.96875 266.265625 99.429688 C 260.671875 103.34375 256.777344 109.011719 253.746094 113.878906 C 252.992188 115.101562 252.308594 116.277344 251.667969 117.40625 C 251.003906 118.550781 250.359375 119.640625 249.765625 120.664062 C 248.621094 122.671875 247.71875 124.328125 247.105469 125.496094 C 250.039062 123.054688 255.476562 118.472656 262.421875 113.921875 C 269.402344 109.417969 277.894531 104.957031 287.914062 104.175781 C 287.914062 104.175781 283.140625 105.226562 276.058594 108.949219 C 268.917969 112.597656 259.660156 119.121094 249.105469 127.820312 C 251.703125 128.25 256.09375 128.847656 261.566406 129.109375 C 266.691406 129.472656 272.941406 129.558594 279.117188 127.714844 C 287.402344 125.296875 293.730469 119.121094 297.601562 112.632812 C 301.1875 106.394531 302.328125 100.242188 302.328125 100.242188 C 302.328125 100.242188 301.011719 99.394531 298.820312 98.320312 Z M 287.800781 55.246094 C 288.023438 56.804688 288.300781 58.148438 288.535156 59.171875 C 295.480469 53.460938 300.070312 47.8125 302.691406 43.386719 C 305.34375 38.976562 306.113281 35.882812 306.113281 35.882812 C 305.488281 42.484375 302.492188 47.917969 299.289062 52.164062 C 296.070312 56.398438 292.640625 59.464844 290.734375 61.085938 C 292.648438 60.6875 296.226562 59.777344 299.84375 58.347656 C 303.445312 56.917969 307.332031 54.777344 309.886719 51.140625 C 311.453125 48.878906 312.46875 46.0625 312.683594 43.402344 C 312.945312 40.710938 312.667969 37.929688 312.15625 35.425781 C 311.636719 32.929688 310.910156 30.667969 310.261719 29.101562 C 309.550781 27.59375 309.011719 26.683594 309.011719 26.683594 C 309.011719 26.683594 304.875 27.046875 300.347656 28.847656 C 295.78125 30.625 290.941406 33.882812 288.65625 38.890625 C 286.941406 42.625 286.761719 46.722656 287.046875 50.308594 C 287.210938 52.117188 287.496094 53.773438 287.800781 55.246094 Z M 186.445312 104.304688 C 183.492188 101.871094 180.496094 100.605469 180.496094 100.605469 C 180.496094 100.605469 179.875 101.152344 178.992188 102.105469 C 178.125 103.121094 177.042969 104.628906 176.054688 106.367188 C 175.066406 108.117188 174.195312 110.121094 173.742188 112.191406 C 173.265625 114.226562 173.34375 116.566406 173.96875 118.636719 C 175 121.960938 177.386719 124.492188 179.726562 126.425781 C 182.089844 128.355469 184.53125 129.898438 185.863281 130.652344 C 184.835938 128.988281 183.015625 125.871094 181.632812 121.9375 C 180.253906 118.003906 179.328125 113.230469 180.445312 108.152344 C 180.445312 108.152344 180.273438 110.648438 181.199219 114.574219 C 182.089844 118.503906 184.160156 123.824219 187.96875 129.75 C 188.394531 129.039062 188.921875 128.105469 189.457031 127.003906 C 190.039062 125.980469 190.652344 124.8125 191.199219 123.503906 C 192.28125 120.898438 193.121094 117.796875 192.738281 114.597656 C 192.246094 110.328125 189.414062 106.730469 186.445312 104.304688 Z M 343.90625 224.691406 C 343.535156 222.726562 342.972656 220.109375 341.800781 217.355469 C 340.667969 214.605469 339.117188 211.792969 337.015625 209.417969 C 334.867188 207.035156 332.21875 205.113281 329.03125 204.046875 C 323.941406 202.367188 318.433594 202.980469 313.464844 203.925781 C 308.527344 204.914062 304.355469 206.316406 301.964844 207.097656 C 305.003906 207.476562 306.335938 211.929688 307.488281 217.015625 C 308.796875 222.117188 309.816406 227.863281 314.171875 230.460938 C 319.941406 233.902344 327.4375 233.753906 333.613281 232.203125 C 336.640625 231.429688 339.34375 230.367188 341.273438 229.492188 C 343.222656 228.617188 344.347656 227.921875 344.347656 227.921875 C 344.347656 227.921875 344.269531 226.648438 343.90625 224.691406 Z M 305.714844 71.1875 C 303.410156 75.34375 303.464844 80.691406 302.46875 85.765625 C 302.285156 86.917969 301.523438 90.972656 300.085938 90.949219 C 302.015625 90.964844 305.515625 90.90625 309.375 90.28125 C 313.253906 89.632812 317.410156 88.460938 320.589844 85.757812 C 324.5625 82.386719 325.949219 77.121094 326.199219 72.539062 C 326.46875 67.972656 325.65625 64.210938 325.65625 64.210938 C 325.359375 63.171875 315.941406 64.289062 315.332031 64.507812 C 311.332031 65.53125 307.730469 67.558594 305.714844 71.1875 Z M 254.636719 264.921875 C 250.734375 270.980469 251.503906 279.660156 256.414062 284.925781 C 259.46875 288.210938 263.710938 290.074219 267.824219 291.859375 C 266.449219 286.027344 268.242188 279.589844 265.84375 274.097656 C 263.851562 269.550781 259.3125 266.597656 254.636719 264.921875 Z M 233.363281 131.871094 C 228.585938 133.476562 224.808594 139.800781 221.433594 143.542969 C 226.5 146.125 234.402344 148.472656 239.667969 146.324219 C 244.933594 144.175781 247.660156 137.6875 251.460938 133.457031 C 245.539062 133.390625 238.984375 129.992188 233.363281 131.871094 Z M 144.9375 135.171875 C 139.34375 131.898438 132.667969 130.523438 126.234375 131.328125 C 131.75 142.882812 144.667969 150.445312 157.441406 149.605469 C 154.996094 143.601562 150.53125 138.449219 144.9375 135.171875 Z M 144.9375 135.171875 " fill-opacity="1" fill-rule="nonzero"/><path fill="#117c79" d="M 63.296875 116.816406 C 57.660156 118.902344 50.792969 118.703125 46.109375 114.910156 C 45.625 114.519531 43.808594 111.652344 42.257812 108.691406 C 40.699219 105.734375 39.703125 102.789062 40.039062 102.53125 C 40.039062 102.53125 43.132812 100.46875 47.277344 99.132812 C 51.425781 97.773438 56.585938 97.238281 61.003906 99.480469 C 64.078125 101.03125 66.578125 103.726562 68.570312 106.714844 C 69.660156 108.429688 71.425781 114.175781 73.28125 114.589844 C 70.121094 113.792969 66.484375 115.578125 63.296875 116.816406 Z M 212.160156 96.199219 C 213.242188 95.632812 214.75 94.863281 216.472656 93.972656 C 218.210938 93.019531 220.265625 91.761719 222.421875 90.132812 C 224.578125 88.496094 226.855469 86.511719 228.84375 84.214844 C 232.914062 79.53125 235.332031 73.605469 236.34375 68.648438 C 236.878906 66.152344 237.054688 64.011719 237.089844 62.496094 C 237.132812 60.964844 237.042969 60.027344 237.042969 60.027344 C 237.042969 60.027344 233.164062 60.148438 228.585938 61.613281 C 226.335938 62.253906 223.753906 63.675781 221.460938 65.355469 C 219.148438 67.070312 217.050781 69.238281 215.441406 71.914062 C 212.246094 77.277344 211.347656 83.652344 210.851562 88.554688 C 210.402344 93.476562 210.453125 96.941406 210.453125 96.941406 C 210.453125 96.941406 211.085938 96.726562 212.160156 96.199219 Z M 338.226562 182.910156 C 335.101562 181.53125 331.757812 182.113281 329.214844 182.925781 C 327.933594 183.332031 326.867188 183.816406 326.097656 184.183594 C 325.289062 184.546875 324.824219 184.8125 324.824219 184.8125 C 324.824219 184.8125 325.410156 186.988281 326.726562 189.621094 C 328.042969 192.246094 330.078125 195.382812 333.046875 197.0625 C 336.019531 198.746094 339.394531 198.546875 342.054688 197.808594 C 344.710938 197.082031 346.632812 195.859375 346.632812 195.859375 C 346.632812 195.859375 346.148438 193.269531 344.867188 190.375 C 343.671875 187.492188 341.371094 184.285156 338.226562 182.910156 Z M 105.316406 16.226562 C 102.667969 17.5625 101.265625 20.695312 101.332031 23.660156 C 101.410156 26.621094 102.734375 29.429688 104.382812 31.898438 C 107.167969 36.082031 110.96875 39.589844 115.359375 42.042969 C 115.457031 37.210938 115.160156 32.316406 113.671875 27.714844 C 112.183594 23.113281 109.394531 18.816406 105.316406 16.226562 Z M 347.628906 93.582031 C 339.75 90.582031 330.574219 91.226562 323.1875 95.28125 C 321.785156 96.050781 320.285156 97.203125 320.261719 98.804688 C 329.292969 102.816406 340.703125 100.632812 347.628906 93.582031 Z M 65.566406 252.023438 C 61.601562 253.183594 57.417969 255.308594 56.085938 259.214844 C 65.316406 262.792969 76.832031 258.902344 82.015625 250.457031 C 76.492188 249.945312 70.882812 250.472656 65.566406 252.023438 Z M 187.613281 194.855469 C 198.445312 194.855469 207.226562 184.910156 207.226562 172.640625 C 207.226562 160.375 198.445312 150.429688 187.613281 150.429688 C 176.78125 150.429688 168.003906 160.375 168.003906 172.640625 C 168.003906 184.910156 176.78125 194.855469 187.613281 194.855469 Z M 188.140625 240.625 C 177.917969 207.730469 159.214844 174.859375 126.175781 149.945312 C 126.175781 149.945312 210.195312 259.648438 143.707031 374.871094 L 232.566406 374.871094 C 166.082031 259.648438 250.109375 149.945312 250.109375 149.945312 C 217.0625 174.851562 198.359375 207.71875 188.140625 240.625 Z M 188.140625 240.625 " fill-opacity="1" fill-rule="nonzero"/></svg>